# xmcd CD database file
#
# Track frame offsets:
#	150
#	11106
#	22324
#	45177
#	74866
#	98826
#	122711
#	147411
#	160734
#
# Disc length: 2393 seconds
#
# Revision: 0
# Processed by: cddbd v1.5.2PL0 Copyright (c) Steve Scherf et al.
# Submitted via: CDex 1.70beta2
#
DISCID=7e095709
DTITLE=中島紅音 - Jazz in the sun
DYEAR=2009
DGENRE=Jazz
TTITLE0=It don't mean a thing
TTITLE1=I got rhythm
TTITLE2=Spain
TTITLE3=Moonlight serenade
TTITLE4=Venus
TTITLE5=Lovin' you
TTITLE6=You've got a friend
TTITLE7=Hot house
TTITLE8=Polka dots and moonbeams
EXTD=YEAR: 2009
EXTT0=
EXTT1=
EXTT2=
EXTT3=
EXTT4=
EXTT5=
EXTT6=
EXTT7=
EXTT8=
PLAYORDER=
